<svg xmlns="http://www.w3.org/2000/svg" width="30" height="30" viewBox="0 0 30 30">
  <path id="check_circle_FILL0_wght400_GRAD0_opsz48" d="M92.788,197.825,103.4,187.213l-1.725-1.687-8.887,8.887-4.5-4.5L86.6,191.6ZM95,206a14.513,14.513,0,0,1-5.812-1.181,15.113,15.113,0,0,1-8.006-8.006,14.984,14.984,0,0,1,0-11.662,14.991,14.991,0,0,1,3.225-4.763,15.376,15.376,0,0,1,4.781-3.206,14.983,14.983,0,0,1,11.663,0,14.976,14.976,0,0,1,7.969,7.969,14.984,14.984,0,0,1,0,11.662,15.376,15.376,0,0,1-3.206,4.781,14.99,14.99,0,0,1-4.762,3.225A14.606,14.606,0,0,1,95,206Zm0-2.25a12.739,12.739,0,1,0-9.019-3.731A12.269,12.269,0,0,0,95,203.75ZM95,191Z" transform="translate(-80 -176)" fill="#0290f5"/>
</svg>
